<svg width="101" height="93" viewBox="0 0 101 93" fill="none" xmlns="http://www.w3.org/2000/svg">
    <path d="M0.263184 92.5272L3.97115 83.6528H5.68917L9.44245 92.5272H7.9675L7.09819 90.4178H2.52504L1.65985 92.5272H0.263184ZM3.01532 89.2683H6.61204L5.52437 86.5904C5.48317 86.5038 5.43373 86.3885 5.37605 86.2484L5.20301 85.7746C5.14121 85.6016 5.07941 85.4326 5.01349 85.2637L4.85282 84.8311H4.76218C4.7045 85.0371 4.63446 85.239 4.55618 85.4368C4.46966 85.6634 4.38726 85.8776 4.30486 86.0795L4.09062 86.6027L3.01532 89.2683Z" fill="#135582"/>
    <path d="M15.849 83.6567H14.4894V92.527H15.849V83.6567Z" fill="#135582"/>
    <path d="M21.8312 92.5273V83.653H27.0058C27.5291 83.6365 28.0482 83.7477 28.5179 83.9826C28.9134 84.1927 29.2306 84.5223 29.4284 84.9219C29.6385 85.3463 29.7415 85.8201 29.7333 86.2939C29.7456 86.8418 29.6055 87.3815 29.3213 87.8512C29.0452 88.292 28.6373 88.634 28.1553 88.8276L30.0175 92.5356H28.5179L26.8122 89.0542H23.1908V92.5356L21.8312 92.5273ZM23.1908 87.8965H26.8246C27.2407 87.9254 27.6527 87.777 27.9493 87.4845C28.2295 87.1673 28.3778 86.7512 28.3613 86.3268C28.3737 86.0425 28.3119 85.7583 28.1883 85.5028C28.077 85.2845 27.8958 85.1114 27.6774 85.0043C27.4178 84.8889 27.1377 84.8313 26.8534 84.8354H23.2196L23.1908 87.8965Z" fill="#135582"/>
    <path d="M42.604 92.5272V83.6528H44.7093L46.7693 89.2024C46.8228 89.359 46.8846 89.5361 46.9505 89.7339C47.0164 89.9316 47.0824 90.1212 47.14 90.3024C47.1977 90.4837 47.243 90.6485 47.2884 90.7927H47.379C47.412 90.6485 47.4573 90.4837 47.5067 90.3024C47.5562 90.1212 47.618 89.9316 47.6839 89.7339L47.8446 89.2148L49.9045 83.6528H51.9645V92.5272H50.642V87.3155C50.642 87.0559 50.642 86.7758 50.642 86.4915C50.642 86.2072 50.642 85.9229 50.6667 85.6675C50.6915 85.4121 50.6873 85.2555 50.6873 85.1237H50.5802C50.5473 85.2431 50.5019 85.4038 50.4401 85.6016C50.3783 85.7993 50.3165 86.0136 50.2465 86.236L50.0652 86.817L47.894 92.5355H46.658L44.4868 86.817C44.4168 86.6439 44.3591 86.4626 44.3138 86.2814C44.2561 86.0795 44.1943 85.8694 44.1325 85.6716C44.0707 85.4739 44.013 85.2885 43.9677 85.1237H43.877C43.877 85.3132 43.877 85.5357 43.877 85.8035C43.877 86.0712 43.877 86.3349 43.877 86.6027C43.877 86.8705 43.877 87.1136 43.877 87.3237V92.5355L42.604 92.5272Z" fill="#135582"/>
    <path d="M59.3145 83.6567H57.955V92.527H59.3145V83.6567Z" fill="#135582"/>
    <path d="M65.2967 92.527V83.6567H66.6522V91.3363H71.3613V92.527H65.2967Z" fill="#135582"/>
    <path d="M75.6831 92.527V83.6567H83.0002V84.8309H77.0386V87.3935H82.3946V88.5677H77.0386V91.3487H83.0908V92.527H75.6831Z" fill="#135582"/>
    <path d="M90.9682 92.6795C90.4655 92.6795 89.967 92.6342 89.4726 92.5435C89.0277 92.4694 88.5992 92.3169 88.2078 92.0944C87.4415 91.6701 86.9842 90.8502 87.0254 89.9768C87.0254 89.9356 87.0254 89.8903 87.0254 89.8491C87.0254 89.8079 87.0254 89.7667 87.0254 89.7337H88.4097C88.4014 89.7749 88.3932 89.8202 88.3891 89.8614C88.3891 89.915 88.3891 89.9603 88.3891 90.0056C88.3849 90.3105 88.5003 90.6071 88.7063 90.8296C88.9535 91.0727 89.2666 91.2499 89.6045 91.3323C90.0453 91.4517 90.4985 91.5094 90.9517 91.5012C91.1948 91.5012 91.4378 91.4888 91.6768 91.46C91.9075 91.4353 92.1382 91.3941 92.3607 91.3281C92.5585 91.2663 92.7521 91.1839 92.9293 91.0727C93.0941 90.9779 93.2341 90.8502 93.3413 90.6937C93.4443 90.533 93.4937 90.3435 93.4896 90.1539C93.4978 89.8944 93.4031 89.6472 93.2259 89.4577C93.024 89.2517 92.7809 89.0951 92.5132 88.9962C92.1877 88.8726 91.854 88.7696 91.5161 88.6872L90.3873 88.4153C89.9753 88.3247 89.6168 88.2176 89.2419 88.094C88.8876 87.9786 88.5498 87.8221 88.2325 87.6284C87.6145 87.2659 87.2478 86.5902 87.2808 85.8733C87.2767 85.5272 87.3591 85.1812 87.5156 84.8722C87.6804 84.559 87.9235 84.2912 88.2243 84.1017C88.5868 83.8793 88.9865 83.7227 89.4026 83.6362C89.9299 83.5291 90.4655 83.4755 91.0052 83.4837C91.5038 83.4796 92.0023 83.5332 92.4884 83.6444C92.8881 83.7392 93.2712 83.8957 93.6173 84.1141C93.9222 84.3036 94.1735 84.5755 94.3424 84.8928C94.5113 85.2265 94.5978 85.6014 94.5896 85.9763V86.1452H93.2424V85.964C93.2506 85.7044 93.1517 85.4531 92.9705 85.2677C92.7521 85.0576 92.4926 84.901 92.2042 84.8062C91.8334 84.6868 91.4461 84.625 91.0588 84.6332C90.6097 84.6208 90.1648 84.6744 89.7281 84.7815C89.4314 84.8516 89.1554 84.9916 88.9288 85.1935C88.7599 85.3501 88.6651 85.5726 88.6651 85.8033C88.661 86.0381 88.7516 86.2647 88.9164 86.4295C89.1142 86.6149 89.3531 86.755 89.6086 86.8415C89.9382 86.961 90.2719 87.064 90.6138 87.1381L91.7633 87.4101C92.1753 87.5048 92.5379 87.6119 92.9087 87.7314C93.2589 87.8468 93.5926 88.0033 93.9016 88.2052C94.1859 88.3906 94.4289 88.6337 94.6102 88.9221C94.7915 89.2352 94.8821 89.5936 94.8739 89.9562C94.8986 90.5247 94.7256 91.0809 94.3754 91.53C94.0128 91.9502 93.5349 92.251 93.0034 92.3952C92.3442 92.5806 91.6644 92.6712 90.9805 92.6589" fill="#135582"/>
    <path d="M53.526 30.6822L53.114 30.8841C52.9327 30.9829 52.8174 31.1683 52.8091 31.3743V32.5815C52.7926 32.6927 52.8668 32.7998 52.9822 32.8163C53.0316 32.8246 53.081 32.8122 53.1222 32.7875L53.5342 32.5897C53.7155 32.495 53.835 32.3096 53.8432 32.1036V30.8964C53.8432 30.7028 53.699 30.608 53.526 30.6822ZM51.6885 31.6174L51.2765 31.811C51.0911 31.9099 50.9757 32.0953 50.9634 32.3013V33.5043C50.9428 33.6197 51.0211 33.7268 51.1364 33.7474C51.1859 33.7557 51.2394 33.7474 51.2806 33.7186L51.6926 33.5167C51.878 33.422 51.9975 33.2366 52.0057 33.0264V31.8234C52.0222 31.708 51.9398 31.605 51.8244 31.5886C51.775 31.5844 51.7297 31.5927 51.6885 31.6174ZM48.9446 32.9935L48.5326 33.1954C48.3472 33.2901 48.2277 33.4796 48.2195 33.6856V34.8928C48.203 35.0081 48.2813 35.1153 48.3966 35.1317C48.4461 35.14 48.4955 35.1276 48.5367 35.1029L48.9487 34.901C49.13 34.8063 49.2495 34.6209 49.2577 34.4149V33.2077C49.2742 33.0924 49.1959 32.9852 49.0847 32.9688C49.0352 32.9605 48.9858 32.9688 48.9446 32.9935ZM47.103 33.9287L46.691 34.1265C46.5056 34.2212 46.3861 34.4066 46.3737 34.6126V35.8239C46.3614 35.9434 46.4438 36.0464 46.5591 36.0628C46.6045 36.067 46.6539 36.0587 46.6951 36.034L47.1071 35.8362C47.2925 35.7415 47.412 35.552 47.4202 35.346V34.1223C47.4408 34.007 47.3625 33.8999 47.2472 33.8834C47.1977 33.8751 47.1442 33.8875 47.0989 33.9122L47.103 33.9287ZM44.4621 35.1317L44.0501 35.3336C43.8647 35.4284 43.7452 35.6179 43.737 35.8239V37.031C43.7205 37.1464 43.8029 37.2494 43.9182 37.2659C43.9636 37.27 44.013 37.2618 44.0542 37.237L44.4662 37.0434C44.6516 36.9486 44.767 36.7591 44.7752 36.5531V35.3583C44.7752 35.1647 44.6351 35.0699 44.4621 35.1441V35.1317ZM42.6246 36.0793L42.2126 36.2771C42.0272 36.3718 41.9036 36.5572 41.8953 36.7674V37.9745C41.883 38.094 41.9654 38.197 42.0807 38.2135C42.1261 38.2176 42.1755 38.2093 42.2167 38.1846L42.6287 37.9869C42.8141 37.8921 42.9336 37.7026 42.9377 37.4925V36.2894C42.9583 36.1782 42.8841 36.0711 42.7729 36.0505C42.7193 36.0422 42.6699 36.0505 42.6246 36.0793ZM39.7406 37.3565L39.3286 37.5584C39.1432 37.6531 39.0279 37.8427 39.0196 38.0487V39.2558C39.0031 39.3671 39.0773 39.4742 39.1927 39.4906C39.2421 39.4989 39.2915 39.4865 39.3327 39.4618L39.7447 39.264C39.9301 39.1693 40.0496 38.9839 40.0578 38.7779V37.5707C40.0743 37.4554 39.9919 37.3441 39.8724 37.3318C39.8271 37.3235 39.7818 37.3359 39.7406 37.3565ZM37.9031 38.2917L37.4911 38.4854C37.3057 38.5801 37.1862 38.7697 37.178 38.9757V40.1869C37.1615 40.3023 37.2398 40.4094 37.3552 40.4259C37.4046 40.4341 37.454 40.4218 37.4952 40.397L37.9072 40.1993C38.0926 40.1045 38.2121 39.915 38.2203 39.709V38.4977C38.2368 38.3865 38.1627 38.2794 38.0473 38.2629C37.9979 38.2547 37.9484 38.267 37.9072 38.2917H37.9031ZM40.6882 41.4847C35.9544 43.4252 28.6332 46.5111 25.2796 46.4822C24.7852 46.4863 24.2949 46.4287 23.8129 46.3174C23.7387 47.2444 24.2496 47.5946 24.7151 47.6729C33.367 49.1149 49.3937 42.4694 59.1003 36.6067C65.0124 33.0429 67.023 29.3432 67.2372 26.9083C64.3532 31.0736 59.7842 33.6609 40.6882 41.4847ZM45.0677 24.9142C44.9441 25.0296 44.7958 25.112 44.6351 25.1656C43.8111 25.4457 42.8141 24.7536 42.4351 23.6247C42.3856 23.4723 42.3485 23.3157 42.3238 23.1591C39.4852 24.7742 38.2039 24.8895 37.6518 24.7165C37.2975 25.8577 35.8102 28.2143 34.2487 29.3061C36.7495 29.1125 44.5486 25.8083 45.0677 24.9019V24.9142ZM44.5692 24.2097C45.0677 24.0449 46.2872 22.7265 46.0647 22.0509C45.8423 21.3752 44.252 21.6142 43.7576 21.7789C43.2632 21.9437 43.1107 22.6029 43.3456 23.2621C43.5804 23.9213 44.0789 24.3745 44.5816 24.2097H44.5692ZM56.892 27.9177C58.437 27.378 60.0149 26.9289 61.6135 26.5787C60.876 26.4592 60.1385 26.3809 59.3928 26.3439C57.613 26.2779 56.9579 26.7559 56.9579 26.7559C56.9579 26.7559 56.6283 28.0166 56.892 27.9259V27.9177ZM68.123 32.1365C68.09 32.0294 68.0653 31.9223 68.0447 31.8152C67.4514 32.1612 66.8252 32.462 66.1825 32.7051C65.0825 33.9658 63.8382 35.0947 62.4745 36.0628C64.2008 35.9269 69.5979 33.6444 69.9523 33.0141C69.8657 33.0924 69.7669 33.15 69.6556 33.1871C69.0788 33.3849 68.399 32.907 68.1354 32.1283L68.123 32.1365ZM69.738 32.462C69.4002 32.5774 69.0459 32.2725 68.8852 31.811C68.7245 31.3496 68.8358 30.8964 69.1818 30.7852C69.5279 30.6739 70.6197 30.5133 70.7721 30.9747C70.9246 31.4361 70.0841 32.3508 69.738 32.462Z" fill="#135582"/>
    <path d="M71.3407 34.6458C72.1647 33.8218 72.4531 32.2933 71.9504 30.773C71.353 28.9973 69.8905 27.8561 68.5597 28.0415C68.6256 27.6624 68.6091 27.271 68.5103 26.8961C68.399 26.4841 68.2095 25.5983 67.0971 25.6189C65.9847 25.6395 61.9637 25.792 61.8112 25.7837C61.6588 25.7755 59.1291 25.244 57.2793 25.7178C56.7478 25.8538 54.556 26.9538 51.8739 28.3669C51.8368 28.3381 51.7956 28.3134 51.7503 28.2969C51.7503 28.2969 49.9128 27.7613 47.0329 26.9085C47.9846 25.7261 48.2689 23.7814 47.6262 21.8451C46.7363 19.1671 44.4085 17.5356 42.4309 18.1989C40.9519 18.6892 40.0908 20.333 40.1155 22.2447C39.0237 22.7391 37.9608 23.3035 36.939 23.9298C36.939 23.9298 16.092 16.7157 15.9272 16.6333L15.8531 16.6045C22.8982 6.41169 34.5 0.330636 46.8928 0.338876C67.5544 0.338876 84.3433 16.967 84.6976 37.6121C82.5016 36.9777 74.4554 35.581 71.3407 34.654" fill="#135582"/>
    <path d="M88.3602 40.6034L84.4916 42.0247C84.2485 44.4432 83.7706 46.8286 83.062 49.1523C82.4811 50.9774 81.793 52.7655 81.002 54.5082C57.9302 47.8133 39.2339 53.8902 25.8687 69.5584C18.6629 64.8246 9.09225 54.2075 9.09225 38.2756V38.1479C9.09225 37.7977 9.09225 37.4392 9.11285 37.089C9.27765 31.4653 10.6908 25.9487 13.2575 20.9388C12.3347 20.395 9.96157 18.9489 9.96157 18.9489C9.96157 18.9489 8.61846 18.2855 9.29001 17.6799C9.82149 17.1938 11.762 15.8671 13.1545 16.2915L14.5306 16.7035C13.6283 17.0042 12.7837 17.4533 12.0339 18.0384C11.3582 18.6563 12.6313 19.4227 12.6313 19.4227C12.965 19.6575 13.3111 19.8717 13.6695 20.0613C18.115 22.5085 34.7431 32.1451 39.0649 34.6171C39.0649 34.6171 30.825 39.7958 30.1452 40.1337C27.7598 41.3408 27.3931 39.3921 27.3107 39.3509C27.2283 39.3097 25.947 35.3875 25.6092 35.2886C25.2713 35.1897 23.8829 36.2774 23.6604 36.8377C23.5492 37.1344 23.2484 41.2667 23.096 43.1289C21.1266 43.0547 19.2274 42.9847 18.8936 42.9641C18.4487 42.9476 18.012 43.0506 17.6206 43.2607C17.3692 43.4008 17.1385 43.5821 16.949 43.8004C16.776 43.9858 16.7883 44.2742 16.9737 44.4473C17.0397 44.5091 17.1221 44.5503 17.2127 44.5626C17.3981 44.608 20.8877 45.5555 22.8735 46.0747C22.8735 46.3795 22.8735 46.841 22.8735 46.841C22.8364 47.9534 23.4503 48.5672 24.2207 48.6991C33.4247 49.6096 42.5216 46.3425 56.0721 39.6352C64.6952 40.3479 81.4552 41.6086 81.4552 41.6086C81.4552 41.6086 83.029 41.0936 84.644 40.5457C85.5834 40.2243 86.5392 39.8947 87.1943 39.6517C87.5198 39.5487 87.8205 39.3797 88.0801 39.1531C88.7146 39.3385 89.0936 39.4498 89.1307 39.4663C89.7239 39.697 89.4067 40.2202 88.3891 40.5951" fill="#135582"/>
    <path d="M97.0369 92.5763V91.0396H97.4489L97.7455 91.9707C97.7455 91.9954 97.7455 92.0283 97.7702 92.0613C97.7949 92.0943 97.7702 92.1313 97.7991 92.1602C97.8279 92.189 97.7991 92.2179 97.7991 92.2426C97.7991 92.2179 97.7991 92.189 97.7991 92.1643L97.8238 92.0654L97.8485 91.9665L98.1493 91.0396H98.5365V92.5763H98.2852V91.7317C98.2852 91.6781 98.2852 91.6163 98.2852 91.5545C98.2852 91.4927 98.2852 91.4392 98.2852 91.3939V91.2991C98.2852 91.2991 98.2852 91.3444 98.2646 91.3856C98.244 91.4268 98.2399 91.468 98.2275 91.5133C98.2193 91.5545 98.2069 91.5916 98.1946 91.6287L97.8856 92.5763H97.6631L97.35 91.6287C97.35 91.5999 97.35 91.5669 97.3211 91.5298C97.2923 91.4927 97.3005 91.4516 97.2923 91.4104C97.2841 91.3692 97.2923 91.3321 97.2635 91.2991C97.2635 91.3362 97.2635 91.3815 97.2635 91.4351C97.2635 91.4886 97.2635 91.5381 97.2635 91.5916V92.5763H97.0369Z" fill="#135582"/>
    <path d="M99.5954 92.6012C99.4553 92.6053 99.3111 92.5765 99.1834 92.5188C99.0721 92.4611 98.9856 92.3664 98.9321 92.2551C98.8703 92.1109 98.8373 91.9585 98.8455 91.8019C98.8291 91.5836 98.8991 91.3693 99.0433 91.2045C99.1875 91.0645 99.3853 90.9944 99.5871 91.0068C99.7066 91.0068 99.822 91.0274 99.9332 91.0727C100.032 91.1139 100.114 91.1798 100.176 91.2663C100.238 91.3652 100.267 91.4806 100.263 91.5959H100.007C100.007 91.5259 99.9909 91.4517 99.9579 91.3899C99.9208 91.3322 99.8714 91.291 99.8096 91.2622C99.7396 91.2334 99.6654 91.2169 99.5912 91.221C99.4965 91.2169 99.4059 91.2375 99.3235 91.2828C99.2493 91.3281 99.1916 91.3899 99.1586 91.4682C99.1216 91.5671 99.101 91.6742 99.1051 91.7813V91.8308C99.101 91.9379 99.1216 92.045 99.1586 92.1439C99.1916 92.2222 99.2493 92.2881 99.3235 92.3252C99.48 92.3952 99.6572 92.3952 99.8137 92.3252C99.8755 92.3004 99.9291 92.2592 99.9662 92.2016C99.9991 92.1398 100.016 92.0656 100.016 91.9956H100.263C100.267 92.1109 100.238 92.2263 100.176 92.3252C100.114 92.4117 100.032 92.4776 99.9332 92.5188C99.822 92.56 99.7025 92.5847 99.583 92.5806" fill="#135582"/>
</svg>
