<?xml version="1.0" encoding="utf-8"?>
<!-- Generator: Adobe Illustrator 13.0.0, SVG Export Plug-In . SVG Version: 6.00 Build 14948)  -->
<!DOCTYPE svg PUBLIC "-//W3C//DTD SVG 1.1//EN" "http://www.w3.org/Graphics/SVG/1.1/DTD/svg11.dtd">
<svg version="1.1" id="Layer_1" xmlns="http://www.w3.org/2000/svg" xmlns:xlink="http://www.w3.org/1999/xlink" x="0px" y="0px"
	 width="286.303px" height="130.104px" viewBox="0 0 286.303 130.104" enable-background="new 0 0 286.303 130.104"
	 xml:space="preserve">
<g>
	<path fill="#FFFFFF" stroke="#000000" stroke-width="2.0787" stroke-linecap="round" stroke-linejoin="round" d="M192.929,2.916
		c5.144-0.566,9.451-1.223,12.336,0.788"/>
	<path fill="#FFFFFF" stroke="#000000" stroke-width="2.0787" stroke-linecap="round" stroke-linejoin="round" d="M77.997,124.462
		c0,0,1.761,0.664-14.122,2.584c-13.481,1.63-27.547-10.298-31.493-13.942l0.051,0.398c-19.325-9.573-18.562-19.95-18.562-19.95
		c0.763,0.557,1.97,0.979,3.45,1.303l-0.571-0.753c-8.286-6.48-9.083-11.477-10.688-16.107c-0.843-2.429-0.913-5.449-0.575-8.453
		l-0.992-1.259c-10.381-15.857,5.682-40.648,8.387-41.773c2.115-0.88,2.983-2.942,1.73,0.702l0.532-0.653
		C25.448,8.85,36.73,8.815,36.73,8.815c8.792-10.499,26.116-6.644,26.116-6.644c-1.116,0.279-2.294,0.873-3.468,1.698l0.792-0.292
		c4.265-2.416,7.229-1.028,11.195-0.873c3.966,0.155,12.254-1.546,12.254-1.546c-0.68,0.947-1.368,1.854-2.062,2.72l0.03-0.535
		c2.897-1.992,7.201-1.307,12.34-0.708c5.14,0.598,9.992-1.595,9.992-1.595C87.758,30.354,76.911,26.395,71.02,26.72l-0.391-0.384
		c-3.268,6.19-9.869,14.548-21.946,19.051l-0.208,0.573c1.046,4.728,1.386,12.203-4.648,17.984l-0.333,0.899
		c0.344,0.83,0.677,1.737,0.985,2.701c1.664,5.188,5.633,6.754,7.154,10.547l0.057-0.238c0.486-2.342,0.811-2.721,1.231-2.469
		c1.203,0.723,5.214,6.798,11.336,8.706c6.121,1.908,12.058,7.502,12.058,7.502l0.091,0.374c-0.29-1.015-0.36-1.615-0.36-1.615
		c1.011,1.588,9.547,3.67,13.234,3.854c9.078,0.454,13.667,3.951,17.757,8.044l-0.249,0.276c22.594-3.311,36.015,14.7,36.015,14.7
		s13.989-18.522,37.238-14.278c23.249,4.242,25.9,16.108,36.685,15.597c0,0,1.364,5.558-22.395,8.556
		c-13.169,1.661-24.222-13.385-51.566,1.686c-27.246-15.246-38.396-0.271-51.554-2.019c-6.055-0.804-10.474-1.763-13.698-2.746
		L77.997,124.462L77.997,124.462z"/>
	<path fill="#FFFFFF" stroke="#000000" stroke-width="2.0787" stroke-linecap="round" stroke-linejoin="round" d="M208.306,124.742
		c0,0-1.763,0.664,14.121,2.585c13.481,1.629,27.548-10.299,31.493-13.943l-0.05,0.399c19.324-9.574,18.562-19.95,18.562-19.95
		c-0.763,0.556-1.971,0.978-3.45,1.302l0.571-0.752c8.286-6.481,9.083-11.477,10.689-16.107c0.842-2.429,0.912-5.45,0.574-8.454
		l0.992-1.259c10.38-15.857-5.683-40.647-8.388-41.773c-2.115-0.879-2.983-2.941-1.73,0.703l-0.532-0.653
		C260.854,9.13,249.572,9.096,249.572,9.096c-8.792-10.499-26.116-6.644-26.116-6.644c1.115,0.279,2.295,0.872,3.468,1.697
		l-0.792-0.292c-4.264-2.415-7.229-1.027-11.194-0.873c-3.967,0.156-12.255-1.546-12.255-1.546c0.68,0.948,1.368,1.854,2.062,2.72
		l-0.029-0.536c-2.897-1.991-7.2-1.307-12.341-0.708c-5.14,0.598-9.991-1.595-9.991-1.595c16.16,29.314,27.008,25.354,32.899,25.681
		l0.391-0.384c3.268,6.19,9.869,14.548,21.945,19.051l0.209,0.573c-1.046,4.728-1.387,12.203,4.649,17.984l0.332,0.898
		c-0.345,0.831-0.677,1.738-0.985,2.701c-1.664,5.189-5.634,6.755-7.153,10.548l-0.058-0.239c-0.486-2.342-0.811-2.72-1.231-2.468
		c-1.203,0.723-5.215,6.798-11.336,8.705c-6.121,1.908-12.058,7.502-12.058,7.502l-0.093,0.375c0.29-1.015,0.36-1.616,0.36-1.616
		c-1.01,1.588-9.547,3.67-13.234,3.854c-9.077,0.453-13.666,3.951-17.756,8.043l0.249,0.276c-22.595-3.31-36.016,14.7-36.016,14.7
		s-13.988-18.522-37.237-14.278c-23.249,4.242-25.9,16.108-36.685,15.597c0,0-1.364,5.558,22.394,8.556
		c13.168,1.661,24.222-13.384,51.565,1.687c27.246-15.247,38.396-0.272,51.555-2.02c6.055-0.803,10.474-1.763,13.698-2.746
		L208.306,124.742L208.306,124.742z"/>
	<path fill="#FFFFFF" stroke="#000000" stroke-width="1.0395" stroke-linecap="round" stroke-linejoin="round" d="M77.667,105.327
		c-1.479-8.874-12.703-8.281-20.669-19.873c0,0,4.242,8.309,10.064,12.786c5.822,4.478,4.841,3.168,6.861,6.346"/>
	<path fill="#FFFFFF" stroke="#000000" stroke-width="1.0395" stroke-linecap="round" stroke-linejoin="round" d="M99.22,103.67
		c-4.032-3.534-11.549-5.299-14.57-7.244c0,0,0.179,1.327,7.891,5.394c0.896,0.472,2.349,0.887,3.667,2.726"/>
	<path fill="#FFFFFF" stroke="#000000" stroke-width="1.0395" stroke-linecap="round" stroke-linejoin="round" d="M187.497,103.954
		c4.055-3.509,11.583-5.224,14.618-7.149c0,0-0.188,1.326-7.927,5.342c-0.897,0.466-2.354,0.871-3.684,2.701"/>
	<path fill="#FFFFFF" stroke="#000000" stroke-width="1.0395" stroke-linecap="round" stroke-linejoin="round" d="M72.036,17.886
		C77.003,16.81,90.558,11.462,96.325,7.2c0,0-10.023,9.498-21.604,12.102"/>
	<path fill="#FFFFFF" stroke="#000000" stroke-width="1.0395" stroke-linecap="round" stroke-linejoin="round" d="M48.866,20.276
		c5.931-5.408,12.536-9.756,16.887-11.334c4.351-1.577,7.644-2.481,8.423-3.126c0,0-3.177,2.021-9.06,5.166
		c-5.882,3.146-11.813,8.553-13.537,10.988"/>
	<path fill="#FFFFFF" stroke="#000000" stroke-width="1.0395" stroke-linecap="round" stroke-linejoin="round" d="M34.983,27.915
		c2.34-1.934,5.431-4.792,7.097-7.785c1.667-2.993,3.988-10.568,8.224-13.261c0,0-6.276,2.058-9.822,11.451
		c-0.443,1.174-5.844,6.245-5.844,6.245"/>
	<path fill="#FFFFFF" stroke="#000000" stroke-width="1.0395" stroke-linecap="round" stroke-linejoin="round" d="M49.005,38.036
		c2.167-3.609,9.676-8.756,9.676-8.756c8.924-3.741,8.29-5.792,8.29-5.792s-2.926,1.712-6.777,2.673
		c-3.85,0.961-9.224,6.312-11.197,9.055"/>
	<path fill="#FFFFFF" stroke="#000000" stroke-width="1.0395" stroke-linecap="round" stroke-linejoin="round" d="M25.6,54.556
		c1.387-2.965,1.219-12.795,0.583-18.962c-0.144-1.396,0.129-12.427,2.662-15.227c0,0-6.414,3.457-5.03,16.882
		c0.432,4.187,0.873,11.195-0.321,13.293"/>
	<path fill="#FFFFFF" stroke="#000000" stroke-width="1.0395" stroke-linecap="round" stroke-linejoin="round" d="M18.117,64.073
		c0,0-8.09-15.529-6.807-24.972c0,0-4.026,7.468,2.976,23.392"/>
	<path fill="#FFFFFF" stroke="#000000" stroke-width="1.0395" stroke-linecap="round" stroke-linejoin="round" d="M35.405,64.829
		c1.157-5.197,3.595-11.655,6.041-15.294c2.446-3.637,2.966-6.794,2.88-7.632c0,0-1.445,2.406-4.42,6.38
		c-2.976,3.974-8.312,12.424-6.726,19.596"/>
	<path fill="#FFFFFF" stroke="#000000" stroke-width="1.0395" stroke-linecap="round" stroke-linejoin="round" d="M29.774,95.032
		c-2.608-3.398-13.76-15.79-18.04-27.198c0,0,2.248,13.593,14.66,27.266"/>
	<path fill="#FFFFFF" stroke="#000000" stroke-width="1.0395" stroke-linecap="round" stroke-linejoin="round" d="M50.026,97.176
		c-2.164-4.572-10.767-14.124-10.474-27.696c0,0-4.546,10.626,7.008,26.925"/>
	<path fill="#FFFFFF" stroke="#000000" stroke-width="1.0395" stroke-linecap="round" stroke-linejoin="round" d="M54.941,106.544
		c-4.417-1.803-11.126-3.932-15.65-4.029c-4.524-0.098-10.415,0.228-15.228-2.662c0,0,6.658,4.412,17.219,5.561
		c3.995,0.434,10.338,1.755,10.983,2.534"/>
	<path fill="#FFFFFF" stroke="#000000" stroke-width="1.0395" stroke-linecap="round" stroke-linejoin="round" d="M78.589,114.261
		c-4.86-0.627-11.291-2.047-19.126,0.563c-2.455,0.817-11.974,1.517-14.603,0.659c0,0,4.959,2.31,13.409,1.438
		c1.675-0.173,11.051-2.269,16.306-0.554"/>
	<path fill="#FFFFFF" stroke="#000000" stroke-width="1.0395" stroke-linecap="round" stroke-linejoin="round" d="M215.234,18.348
		c-4.961-1.108-18.48-6.543-24.22-10.843c0,0,9.961,9.563,21.525,12.241"/>
	<path fill="#FFFFFF" stroke="#000000" stroke-width="1.0395" stroke-linecap="round" stroke-linejoin="round" d="M238.388,20.886
		c-5.896-5.446-12.473-9.837-16.813-11.442c-4.341-1.605-7.628-2.53-8.403-3.179c0,0,3.164,2.04,9.026,5.224
		c5.861,3.183,11.758,8.629,13.466,11.075"/>
	<path fill="#FFFFFF" stroke="#000000" stroke-width="1.0395" stroke-linecap="round" stroke-linejoin="round" d="M252.221,28.614
		c-2.327-1.949-5.398-4.828-7.046-7.831c-1.646-3.004-3.921-10.593-8.139-13.314c0,0,6.263,2.098,9.747,11.514
		c0.436,1.177,5.805,6.283,5.805,6.283"/>
	<path fill="#FFFFFF" stroke="#000000" stroke-width="1.0395" stroke-linecap="round" stroke-linejoin="round" d="M238.135,38.645
		c-2.144-3.623-9.62-8.819-9.62-8.819c-8.9-3.799-8.252-5.844-8.252-5.844s2.915,1.731,6.76,2.717
		c3.844,0.986,9.183,6.371,11.14,9.126"/>
	<path fill="#FFFFFF" stroke="#000000" stroke-width="1.0395" stroke-linecap="round" stroke-linejoin="round" d="M261.433,55.315
		c-1.367-2.973-1.138-12.803-0.461-18.966c0.152-1.395-0.049-12.427-2.563-15.244c0,0,6.392,3.498,4.921,16.914
		c-0.459,4.184-0.944,11.189,0.236,13.295"/>
	<path fill="#FFFFFF" stroke="#000000" stroke-width="1.0395" stroke-linecap="round" stroke-linejoin="round" d="M268.854,64.88
		c0,0,8.19-15.477,6.968-24.927c0,0,3.979,7.495-3.127,23.372"/>
	<path fill="#FFFFFF" stroke="#000000" stroke-width="1.0395" stroke-linecap="round" stroke-linejoin="round" d="M251.562,65.525
		c-1.123-5.205-3.52-11.678-5.941-15.332c-2.424-3.654-2.923-6.814-2.831-7.65c0,0,1.429,2.415,4.379,6.408
		c2.949,3.994,8.23,12.478,6.599,19.64"/>
	<path fill="#FFFFFF" stroke="#000000" stroke-width="1.0395" stroke-linecap="round" stroke-linejoin="round" d="M256.998,95.764
		c2.629-3.381,13.86-15.701,18.214-27.081c0,0-2.336,13.577-14.836,27.17"/>
	<path fill="#FFFFFF" stroke="#000000" stroke-width="1.0395" stroke-linecap="round" stroke-linejoin="round" d="M236.732,97.776
		c2.193-4.558,10.858-14.055,10.652-27.628c0,0,4.478,10.654-7.183,26.88"/>
	<path fill="#FFFFFF" stroke="#000000" stroke-width="1.0395" stroke-linecap="round" stroke-linejoin="round" d="M209.038,105.751
		c1.537-8.866,12.757-8.2,20.798-19.74c0,0-4.296,8.281-10.146,12.722c-5.851,4.439-4.861,3.136-6.902,6.3"/>
	<path fill="#FFFFFF" stroke="#000000" stroke-width="1.0395" stroke-linecap="round" stroke-linejoin="round" d="M231.757,107.112
		c4.429-1.772,11.15-3.858,15.676-3.928c4.524-0.068,10.413,0.295,15.243-2.563c0,0-6.685,4.368-17.253,5.447
		c-3.998,0.41-10.349,1.689-10.998,2.465"/>
	<path fill="#FFFFFF" stroke="#000000" stroke-width="1.0395" stroke-linecap="round" stroke-linejoin="round" d="M208.06,114.678
		c4.864-0.597,11.305-1.975,19.123,0.686c2.449,0.832,11.965,1.594,14.597,0.753c0,0-4.974,2.278-13.417,1.352
		c-1.673-0.183-11.035-2.339-16.302-0.657"/>
	<path fill="#FFFFFF" stroke="#000000" stroke-width="1.0395" stroke-linecap="round" stroke-linejoin="round" d="M143.288,125.988
		c23.408-15.22,42.153-8.427,42.153-8.427c10.543,4.262,20.552,3.101,20.552,3.101c-15.156-0.814-8.407-5.722-26.601-7.151
		s-28.229,4.623-36.094,9.407c-7.833-4.834-17.831-10.953-36.033-9.639c-18.203,1.313-11.485,6.262-26.646,6.979
		c0,0,10,1.227,20.571-2.967C101.189,117.291,119.979,110.618,143.288,125.988L143.288,125.988z"/>
	<path fill="none" stroke="#000000" stroke-width="1.3857" stroke-linecap="round" stroke-linejoin="round" d="M76.815,91.592
		c0,0-5.938-5.594-12.058-7.502c-6.122-1.908-10.133-7.983-11.336-8.706c-1.204-0.722-4.489,11.185,0.521,24.21 M197.265,107.564
		c11.797-7.175,12.991-16.784,12.991-16.784c-1.02,1.583-9.57,3.608-13.258,3.77c-9.08,0.395-13.692,3.862-17.808,7.928
		 M89.43,107.219c-11.751-7.252-12.884-16.868-12.884-16.868c1.011,1.588,9.547,3.67,13.234,3.854
		c9.078,0.454,13.667,3.951,17.757,8.044 M71.532,26.685c5.891-0.326,16.738,3.634,32.899-25.681c0,0-4.852,2.193-9.992,1.594
		C89.3,2,84.998,1.315,82.1,3.307 M62.102,20.04c5.632-2.838,14.383-8.254,22.029-18.917c0,0-8.289,1.701-12.254,1.545
		c-3.965-0.155-6.93-1.542-11.195,0.873 M49.195,45.351c20.919-7.8,25.411-27.166,24.603-26.799
		c-0.81,0.365-6.306,1.778-8.847,1.758c-9.579-0.075-11.946,1.796-17.886,4.384 M36.291,35.115
		c5.603-3.117,10.62-11.613,16.043-22.25c2.581-5.062,7.174-9.768,11.024-10.729c0,0-17.325-3.855-26.117,6.644 M15.656,26.522
		C25.96,8.814,37.242,8.779,37.242,8.779C36.183,9.453,34.1,22.081,34.06,27.164c-0.041,5.082,2.145,7.114,2.556,13.842
		 M26.811,58.098c1.243-4.36,6.783-19.037,21.983-24.836c0,0-1.6,6.372-0.302,10.751c1.299,4.38,2.778,13.256-4.154,19.896
		 M27.364,74.403c0.984-6.871,1.933-15.675-8.442-29.88c0,0-5.511-12.409-3.989-16.798c1.522-4.389,0.673-2.172-1.54-1.252
		C10.688,27.599-5.375,52.39,5.006,68.246 M35.92,95.81c-2.059-6.276-6.667-24.985-16.455-29.619
		c-9.788-4.632-8.044-9.609-9.19-9.772c-1.146-0.164-6.408,13.743-3.703,21.541c1.606,4.631,2.404,9.627,10.689,16.107
		 M52.145,78.056c-1.52-3.794-5.49-5.358-7.154-10.548c-1.664-5.189-4.006-8.756-5.272-7.355c0,0-9.301,8.294-8.034,20.577
		 M63.144,104.005c-3.975-2.976-10.671-7.368-29.318-7.979c-6.228-0.204-16.392-0.284-19.443-2.509c0,0-0.764,10.376,18.562,19.95
		 M84.164,110.865c-4.032-3.534-12.381-9.827-25.372-5.283c-5.718,2-9.781,6.369-26.983,6.45c0,0,16.695,16.898,32.578,14.979
		c15.883-1.921,14.122-2.585,14.122-2.585 M215.681,27.148c-5.889-0.363-16.762,3.526-32.733-25.892c0,0,4.838,2.224,9.981,1.659
		 M225.153,20.565c-5.612-2.874-14.329-8.347-21.906-19.059c0,0,8.277,1.753,12.243,1.625c3.968-0.13,6.94-1.498,11.189,0.945
		 M237.897,45.959c-20.869-7.935-25.235-27.328-24.43-26.958c0.807,0.371,6.295,1.819,8.836,1.815
		c9.578-0.013,11.934,1.874,17.856,4.499 M250.868,35.806c-5.584-3.153-10.545-11.682-15.899-22.353
		c-2.549-5.079-7.112-9.813-10.956-10.8c0,0,17.35-3.743,26.073,6.811 M271.558,27.347C261.366,9.573,250.086,9.464,250.086,9.464
		c1.054,0.681,3.057,13.322,3.063,18.404c0.008,5.083-2.189,7.1-2.646,13.826 M260.198,58.85
		c-1.215-4.368-6.66-19.081-21.822-24.979c0,0,1.559,6.382,0.232,10.753c-1.326,4.372-2.863,13.238,4.026,19.921 M259.54,75.151
		c-0.939-6.878-1.831-15.687,8.635-29.825c0,0,5.591-12.374,4.097-16.772c-1.493-4.399-0.659-2.177,1.548-1.242
		c2.698,1.144,18.602,26.037,8.119,41.826 M250.848,96.501c2.099-6.263,6.828-24.942,16.646-29.511
		c9.817-4.571,8.105-9.558,9.252-9.714c1.146-0.156,6.319,13.785,3.564,21.564c-1.636,4.621-2.465,9.611-10.793,16.038
		 M234.737,78.644c1.544-3.784,5.524-5.323,7.221-10.501c1.697-5.178,4.063-8.73,5.32-7.322c0,0,9.247,8.354,7.901,20.628
		 M209.979,92.021c0,0,5.973-5.558,12.106-7.426c6.134-1.867,10.184-7.917,11.392-8.632c1.208-0.714,4.418,11.213-0.677,24.205
		 M223.571,104.521c3.994-2.95,10.718-7.299,29.367-7.791c6.23-0.164,16.396-0.178,19.459-2.383c0,0,0.697,10.38-18.689,19.829
		 M202.508,111.246c4.055-3.509,12.443-9.747,25.404-5.12c5.706,2.038,9.741,6.432,26.94,6.624c0,0-16.804,16.79-32.674,14.769
		c-15.87-2.022-14.104-2.676-14.104-2.676 M143.278,128.748c27.344-15.069,38.398-0.024,51.567-1.686
		c23.758-2.998,22.394-8.556,22.394-8.556c-10.784,0.512-13.436-11.354-36.685-15.597s-37.238,14.278-37.238,14.278
		s-13.869-18.611-37.145-14.518c-23.276,4.094-26.004,15.94-36.785,15.36c0,0-1.4,5.549,22.339,8.698
		C104.882,128.477,116.033,113.503,143.278,128.748L143.278,128.748z"/>
	<path fill="#FFFFFF" d="M55.171,3.312c0,0-8.138-1.684-14.874,5.051c0,0,1.123,1.964,7.016-1.964
		C47.313,6.399,47.594,3.592,55.171,3.312L55.171,3.312z"/>
	<path fill="#FFFFFF" d="M71.448,3.873c0,0-8.139-1.684-14.874,5.052c0,0,1.123,1.965,7.016-1.965
		C63.59,6.96,63.871,4.154,71.448,3.873L71.448,3.873z"/>
	<path fill="#FFFFFF" d="M32.608,12.035c0,0-8.132,1.713-11.61,10.58c0,0,1.814,1.351,5.644-4.607
		C26.642,18.008,25.776,15.324,32.608,12.035L32.608,12.035z"/>
	<path fill="#FFFFFF" d="M12.162,32.112c0,0-6.813,4.76-6.542,14.281c0,0,2.199,0.533,3.39-6.449
		C9.01,39.944,7.163,37.813,12.162,32.112L12.162,32.112z"/>
	<path fill="#FFFFFF" d="M45.236,37.573c0,0-8.132,1.713-11.61,10.581c0,0,1.815,1.351,5.644-4.607
		C39.27,43.546,38.404,40.862,45.236,37.573L45.236,37.573z"/>
	<path fill="#FFFFFF" d="M61.345,22.676c0,0-8.138-1.684-14.874,5.051c0,0,1.123,1.964,7.016-1.964
		C53.487,25.763,53.768,22.957,61.345,22.676L61.345,22.676z"/>
	<path fill="#FFFFFF" d="M9.608,63.29c0,0-4.28,7.124-0.149,15.707c0,0,2.225-0.41,0.465-7.271
		C9.924,71.727,7.368,70.533,9.608,63.29L9.608,63.29z"/>
	<path fill="#FFFFFF" d="M39.313,63.172c0,0-6.144,5.597-4.651,15.004c0,0,2.249,0.246,2.533-6.831
		C37.195,71.345,35.088,69.469,39.313,63.172L39.313,63.172z"/>
	<path fill="#FFFFFF" d="M17.277,97.393c0,0,2.468,7.936,11.623,10.566c0,0,1.175-1.934-5.116-5.187
		C23.783,102.772,21.192,103.886,17.277,97.393L17.277,97.393z"/>
	<path fill="#FFFFFF" d="M38.955,114.226c0,0,3.992,7.289,13.486,8.054c0,0,0.769-2.129-6.042-4.07
		C46.398,118.209,44.079,119.813,38.955,114.226L38.955,114.226z"/>
	<path fill="#FFFFFF" d="M53.295,81.899c0,0-2.133,8.033,4.219,15.131c0,0,2.024-1.012-1.572-7.114
		C55.942,89.916,53.155,89.48,53.295,81.899L53.295,81.899z"/>
	<path fill="#FFFFFF" d="M92.496,110.796c0,0,21.047-10.664,37.605-0.281c0,0,4.49,3.648-14.874-0.842
		C115.228,109.673,101.195,106.025,92.496,110.796L92.496,110.796z"/>
	<path fill="#FFFFFF" d="M230.509,4.093c0,0,8.139-1.684,14.873,5.051c0,0-1.122,1.965-7.016-1.964
		C238.366,7.179,238.086,4.373,230.509,4.093L230.509,4.093z"/>
	<path fill="#FFFFFF" d="M214.231,4.654c0,0,8.139-1.684,14.873,5.052c0,0-1.122,1.964-7.016-1.965
		C222.089,7.741,221.809,4.935,214.231,4.654L214.231,4.654z"/>
	<path fill="#FFFFFF" d="M253.071,12.816c0,0,8.133,1.713,11.61,10.58c0,0-1.814,1.352-5.644-4.607
		C259.038,18.789,259.903,16.104,253.071,12.816L253.071,12.816z"/>
	<path fill="#FFFFFF" d="M273.518,32.893c0,0,6.812,4.76,6.541,14.281c0,0-2.198,0.533-3.389-6.449
		C276.67,40.725,278.517,38.594,273.518,32.893L273.518,32.893z"/>
	<path fill="#FFFFFF" d="M240.442,38.354c0,0,8.133,1.712,11.611,10.58c0,0-1.815,1.351-5.645-4.607
		C246.409,44.327,247.274,41.643,240.442,38.354L240.442,38.354z"/>
	<path fill="#FFFFFF" d="M224.335,23.457c0,0,8.138-1.684,14.873,5.051c0,0-1.122,1.964-7.016-1.964
		C232.192,26.543,231.912,23.737,224.335,23.457L224.335,23.457z"/>
	<path fill="#FFFFFF" d="M276.071,64.071c0,0,4.28,7.124,0.149,15.708c0,0-2.225-0.41-0.465-7.271
		C275.756,72.507,278.312,71.314,276.071,64.071L276.071,64.071z"/>
	<path fill="#FFFFFF" d="M246.366,63.953c0,0,6.145,5.596,4.651,15.003c0,0-2.249,0.246-2.532-6.831
		C248.485,72.125,250.591,70.249,246.366,63.953L246.366,63.953z"/>
	<path fill="#FFFFFF" d="M268.402,98.173c0,0-2.468,7.937-11.622,10.567c0,0-1.175-1.934,5.116-5.188
		C261.896,103.553,264.488,104.666,268.402,98.173L268.402,98.173z"/>
	<path fill="#FFFFFF" d="M246.725,115.006c0,0-3.992,7.289-13.486,8.054c0,0-0.769-2.128,6.043-4.07
		C239.281,118.989,241.601,120.595,246.725,115.006L246.725,115.006z"/>
	<path fill="#FFFFFF" d="M232.385,82.68c0,0,2.132,8.033-4.22,15.131c0,0-2.023-1.012,1.572-7.113
		C229.737,90.697,232.524,90.261,232.385,82.68L232.385,82.68z"/>
	<path fill="#FFFFFF" d="M192.684,111.576c0,0-21.048-10.664-37.605-0.28c0,0-4.49,3.648,14.874-0.842
		C169.952,110.454,183.983,106.806,192.684,111.576L192.684,111.576z"/>
	<path fill="#FFFFFF" stroke="#000000" stroke-width="3.1557" stroke-linecap="round" stroke-linejoin="round" d="M145.32,3.145
		l37.414-0.012l15.556,16.778c-8.615,10.573-9.334,16.319-9.334,16.319c-2.393,6.207,1.197,22.525,1.197,22.525
		c1.574,7.345,5.231,25.576-2.695,34.605c-9.673,11.017-19.727,8.716-25.868,11.665c-5.848,2.809-18.22,12.098-18.22,12.098
		s-10.797-9.289-16.645-12.098c-6.143-2.949-16.195-0.648-25.867-11.665c-7.928-9.029-4.27-27.261-2.696-34.605
		c0,0,3.59-16.318,1.197-22.525c0,0-0.718-5.746-9.334-16.319l15.557-16.778L145.32,3.145L145.32,3.145z"/>
	<path fill="#939598" stroke="#000000" stroke-width="2.1993" d="M144.27,8.419h36.31l10.53,11.722c0,0-8.615,8.274-8.854,19.538
		c0,0-0.239,11.492,2.871,22.754c0,0,2.26,12.703,0.718,18.388c-1.334,4.921-4.46,12.54-10.309,14.484
		c-5.849,1.943-19.119,1.501-32.166,14.247c-13.046-12.746-24.743-12.304-30.591-14.247c-5.848-1.944-8.976-9.563-10.309-14.484
		c-1.542-5.686,0.718-18.388,0.718-18.388c3.111-11.262,2.872-22.754,2.872-22.754c-0.239-11.263-8.855-19.538-8.855-19.538
		l10.53-11.722H144.27L144.27,8.419z"/>
	<polygon stroke="#000000" stroke-width="0.3301" stroke-miterlimit="3.8637" points="128.954,98.875 125.151,97.272 
		128.915,97.237 128.954,98.875 	"/>
	<polygon fill="#FFFFFF" stroke="#000000" stroke-width="0.3301" stroke-miterlimit="3.8637" points="149.399,60.859 
		156.775,60.859 156.775,67.977 149.399,67.977 149.399,60.859 	"/>
	<polygon fill="#FFFFFF" stroke="#FFFFFF" stroke-width="0.3301" stroke-miterlimit="3.8637" points="149.783,104.522 
		142.607,104.451 142.607,97.112 149.783,97.186 149.783,104.522 	"/>
	<polygon fill="#FFFFFF" stroke="#000000" stroke-width="0.3301" stroke-miterlimit="3.8637" points="142.441,82.451 
		149.877,82.451 149.877,89.79 142.441,89.79 142.441,82.451 	"/>
	<polygon stroke="#000000" stroke-width="0.3301" stroke-miterlimit="3.8637" points="135.245,82.415 142.694,82.415 
		142.694,89.764 135.245,89.764 135.245,82.415 	"/>
	<polygon fill="#FFFFFF" stroke="#000000" stroke-width="0.3301" stroke-miterlimit="3.8637" points="157.084,67.647 
		164.532,67.647 164.532,74.997 157.084,74.997 157.084,67.647 	"/>
	<polygon fill="#FFFFFF" stroke="#000000" stroke-width="0.3301" stroke-miterlimit="3.8637" points="120.686,75.096 
		128.134,75.096 128.134,82.444 120.686,82.444 120.686,75.096 	"/>
	<polygon stroke="#000000" stroke-width="0.3301" stroke-miterlimit="3.8637" points="127.965,75.096 135.414,75.096 
		135.414,82.444 127.965,82.444 127.965,75.096 	"/>
	<polygon fill="#FFFFFF" stroke="#000000" stroke-width="0.3301" stroke-miterlimit="3.8637" points="135.245,75.096 
		142.694,75.096 142.694,82.444 135.245,82.444 135.245,75.096 	"/>
	<polygon stroke="#000000" stroke-width="0.3301" stroke-miterlimit="3.8637" points="135.124,53.226 142.56,53.226 142.56,60.564 
		135.124,60.564 135.124,53.226 	"/>
	<polygon fill="#FFFFFF" stroke="#000000" stroke-width="0.3301" stroke-miterlimit="3.8637" points="157.018,53.088 
		164.452,53.088 164.452,60.427 157.018,60.427 157.018,53.088 	"/>
	<polygon stroke="#000000" stroke-width="0.3301" stroke-miterlimit="3.8637" points="127.817,60.758 135.252,60.758 
		135.252,68.097 127.817,68.097 127.817,60.758 	"/>
	<polygon fill="#FFFFFF" stroke="#FFFFFF" stroke-width="0.3301" stroke-miterlimit="3.8637" points="142.991,108.898 
		137.206,104.65 143.209,104.504 142.991,108.898 	"/>
	<polygon fill="#FFFFFF" stroke="#000000" stroke-width="0.3301" stroke-miterlimit="3.8637" points="120.612,90.199 
		128.047,90.199 128.047,97.538 124.225,97.538 120.604,95.897 120.612,90.199 	"/>
	<polygon stroke="#000000" stroke-width="0.3301" stroke-miterlimit="3.8637" points="120.812,82.451 128.247,82.451 128.247,89.79 
		120.812,89.79 120.812,82.451 	"/>
	<polygon fill="#FFFFFF" stroke="#000000" stroke-width="0.3301" stroke-miterlimit="3.8637" points="128.078,82.451 
		135.513,82.451 135.513,89.79 128.078,89.79 128.078,82.451 	"/>
	<polygon stroke="#000000" stroke-width="0.3301" stroke-miterlimit="3.8637" points="149.582,82.322 157.018,82.322 
		157.018,89.661 149.582,89.661 149.582,82.322 	"/>
	<polygon fill="#FFFFFF" stroke="#000000" stroke-width="0.3301" stroke-miterlimit="3.8637" points="157.144,82.451 
		164.578,82.451 164.578,89.79 157.144,89.79 157.144,82.451 	"/>
	<polygon stroke="#000000" stroke-width="0.3301" stroke-miterlimit="3.8637" points="120.726,53.256 128.161,53.256 
		128.161,60.595 120.726,60.595 120.726,53.256 	"/>
	<polygon fill="#FFFFFF" stroke="#000000" stroke-width="0.3301" stroke-miterlimit="3.8637" points="128.118,53.256 
		135.553,53.256 135.553,60.595 128.118,60.595 128.118,53.256 	"/>
	<polygon fill="#FFFFFF" stroke="#000000" stroke-width="0.3301" stroke-miterlimit="3.8637" points="142.481,53.127 
		149.917,53.127 149.917,60.466 142.481,60.466 142.481,53.127 	"/>
	<polygon stroke="#000000" stroke-width="0.3301" stroke-miterlimit="3.8637" points="149.874,53.256 157.31,53.256 157.31,60.595 
		149.874,60.595 149.874,53.256 	"/>
	<polygon fill="#FFFFFF" stroke="#000000" stroke-width="0.3301" stroke-miterlimit="3.8637" points="120.686,60.565 
		128.121,60.565 128.121,67.904 120.686,67.904 120.686,60.565 	"/>
	<polygon fill="#FFFFFF" stroke="#000000" stroke-width="0.3301" stroke-miterlimit="3.8637" points="135.218,60.565 
		142.653,60.565 142.653,67.904 135.218,67.904 135.218,60.565 	"/>
	<polygon stroke="#000000" stroke-width="0.3301" stroke-miterlimit="3.8637" points="142.315,60.396 149.751,60.396 
		149.751,67.734 142.315,67.734 142.315,60.396 	"/>
	<polygon stroke="#000000" stroke-width="0.3301" stroke-miterlimit="3.8637" points="157.018,60.396 164.452,60.396 
		164.452,67.734 157.018,67.734 157.018,60.396 	"/>
	<polygon stroke="#000000" stroke-width="0.3301" stroke-miterlimit="3.8637" points="120.812,67.833 128.247,67.833 
		128.247,75.172 120.812,75.172 120.812,67.833 	"/>
	<polygon fill="#FFFFFF" stroke="#000000" stroke-width="0.3301" stroke-miterlimit="3.8637" points="128.078,67.833 
		135.513,67.833 135.513,75.172 128.078,75.172 128.078,67.833 	"/>
	<polygon stroke="#000000" stroke-width="0.3301" stroke-miterlimit="3.8637" points="135.344,67.833 142.779,67.833 
		142.779,75.172 135.344,75.172 135.344,67.833 	"/>
	<polygon fill="#FFFFFF" stroke="#000000" stroke-width="0.3301" stroke-miterlimit="3.8637" points="142.441,67.704 
		149.877,67.704 149.877,75.043 142.441,75.043 142.441,67.704 	"/>
	<polygon stroke="#000000" stroke-width="0.3301" stroke-miterlimit="3.8637" points="149.708,67.704 157.144,67.704 
		157.144,75.043 149.708,75.043 149.708,67.704 	"/>
	<polygon stroke="#000000" stroke-width="0.3301" stroke-miterlimit="3.8637" points="142.441,75.143 149.877,75.143 
		149.877,82.481 142.441,82.481 142.441,75.143 	"/>
	<polygon fill="#FFFFFF" stroke="#000000" stroke-width="0.3301" stroke-miterlimit="3.8637" points="149.708,75.143 
		157.144,75.143 157.144,82.481 149.708,82.481 149.708,75.143 	"/>
	<polygon stroke="#000000" stroke-width="0.3301" stroke-miterlimit="3.8637" points="157.144,75.143 164.578,75.143 
		164.578,82.481 157.144,82.481 157.144,75.143 	"/>
	<polygon stroke="#000000" stroke-width="0.3301" stroke-miterlimit="3.8637" points="128.078,89.761 135.513,89.761 135.513,97.1 
		128.078,97.1 128.078,89.761 	"/>
	<polygon fill="#FFFFFF" stroke="#000000" stroke-width="0.3301" stroke-miterlimit="3.8637" points="135.344,89.761 
		142.779,89.761 142.779,97.1 135.344,97.1 135.344,89.761 	"/>
	<polygon stroke="#000000" stroke-width="0.3301" stroke-miterlimit="3.8637" points="142.567,89.503 149.909,89.503 
		149.909,97.057 142.567,97.057 142.567,89.503 	"/>
	<polygon fill="#FFFFFF" stroke="#000000" stroke-width="0.3301" stroke-miterlimit="3.8637" points="149.582,89.632 
		157.018,89.632 157.018,96.971 149.582,96.971 149.582,89.632 	"/>
	<polygon stroke="#000000" stroke-width="0.3301" stroke-miterlimit="3.8637" points="157.144,89.761 164.578,89.761 164.578,97.1 
		157.144,97.1 157.144,89.761 	"/>
	<polygon stroke="#000000" stroke-width="0.3301" stroke-miterlimit="3.8637" points="149.874,97.282 157.31,97.282 157.27,99.819 
		149.796,103.559 149.874,97.282 	"/>
	<polygon fill-rule="evenodd" clip-rule="evenodd" stroke="#000000" stroke-width="0.3301" stroke-miterlimit="3.8637" points="
		150.034,104.65 142.614,104.625 142.614,104.625 142.614,108.832 142.614,108.832 150.034,104.65 	"/>
	<polygon fill="#FFFFFF" stroke="#000000" stroke-width="0.3301" stroke-miterlimit="3.8637" points="135.76,103.049 
		134.515,102.284 133.02,101.604 130.86,100.754 128.369,99.479 128.327,97.112 135.762,97.112 135.76,103.049 	"/>
	<polygon fill="#FFFFFF" stroke="#000000" stroke-width="0.3301" stroke-miterlimit="3.8637" points="157.182,96.758 
		162.541,96.745 159.468,98.445 157.078,99.76 157.182,96.758 	"/>
	<polygon stroke="#000000" stroke-width="0.3301" stroke-miterlimit="3.8637" points="135.512,97.327 142.948,97.327 
		142.948,104.666 137.755,104.666 135.472,103.227 135.512,97.327 	"/>
	<polygon fill="#FFFFFF" points="173.776,32.458 164.452,53.338 120.394,53.289 110.826,31.671 142.275,9.772 173.776,32.458 	"/>
	<polygon fill="none" stroke="#000000" stroke-width="1.3857" stroke-miterlimit="3.8637" points="173.776,32.458 164.452,53.338 
		120.394,53.289 110.826,31.671 142.275,9.772 173.776,32.458 	"/>
	<polygon stroke="#000000" stroke-width="0.3301" stroke-miterlimit="3.8637" points="114.031,32.522 122.35,51.161 131.003,51.161 
		125.013,25.033 114.031,32.522 	"/>
	<polygon stroke="#000000" stroke-width="0.3301" stroke-miterlimit="3.8637" points="127.009,24.352 133,51.076 141.32,51.076 
		141.32,14.139 127.009,24.352 	"/>
	<polygon stroke="#000000" stroke-width="0.3301" stroke-miterlimit="3.8637" points="171.022,32.948 162.702,51.332 154.05,51.332 
		160.04,25.458 171.022,32.948 	"/>
	<polygon stroke="#000000" stroke-width="0.3301" stroke-miterlimit="3.8637" points="158.15,24.208 152.103,51.018 143.786,51.018 
		143.786,13.639 158.15,24.208 	"/>
	<path fill="none" stroke="#000000" stroke-width="2.1993" d="M144.27,8.419h36.31l10.53,11.722c0,0-8.615,8.274-8.854,19.538
		c0,0-0.239,11.492,2.871,22.754c0,0,2.26,12.703,0.718,18.388c-1.334,4.921-4.46,12.54-10.309,14.484
		c-5.849,1.943-19.119,1.501-32.166,14.247c-13.046-12.746-24.743-12.304-30.591-14.247c-5.848-1.944-8.976-9.563-10.309-14.484
		c-1.542-5.686,0.718-18.388,0.718-18.388c3.111-11.262,2.872-22.754,2.872-22.754c-0.239-11.263-8.855-19.538-8.855-19.538
		l10.53-11.722H144.27L144.27,8.419z"/>
	<path fill="none" stroke="#000000" stroke-width="1.3857" stroke-miterlimit="3.8637" d="M164.901,53.272v44.25 M120.401,53.522
		v43.25"/>
</g>
</svg>
